<?xml version="1.0" encoding="UTF-8" standalone="no" ?>
<!DOCTYPE svg PUBLIC "-//W3C//DTD SVG 1.1//EN" "http://www.w3.org/Graphics/SVG/1.1/DTD/svg11.dtd">
<svg xmlns="http://www.w3.org/2000/svg" xmlns:xlink="http://www.w3.org/1999/xlink" version="1.1" width="1080" height="1080" viewBox="0 0 1080 1080" xml:space="preserve">
<desc>Created with Fabric.js 5.2.4</desc>
<defs>
</defs>
<g transform="matrix(1 0 0 1 540 540)" id="68576d4f-cfe9-4a06-bbae-97767520d59a"  >
<rect style="stroke: none; stroke-width: 1; stroke-dasharray: none; stroke-linecap: butt; stroke-dashoffset: 0; stroke-linejoin: miter; stroke-miterlimit: 4; fill: rgb(255,255,255); fill-rule: nonzero; opacity: 1; visibility: hidden;" vector-effect="non-scaling-stroke"  x="-540" y="-540" rx="0" ry="0" width="1080" height="1080" />
</g>
<g transform="matrix(1 0 0 1 540 540)" id="cfadb809-7274-412c-92e2-bf458a520924"  >
</g>
<g transform="matrix(1 0 0 1 540 540)" id="0d564244-a097-49f2-8805-d3ade6446290"  >
<path style="stroke: rgb(0,0,0); stroke-width: 0; stroke-dasharray: none; stroke-linecap: butt; stroke-dashoffset: 0; stroke-linejoin: miter; stroke-miterlimit: 4; fill: rgb(255,255,255); fill-rule: nonzero; opacity: 1;" vector-effect="non-scaling-stroke"  transform=" translate(-45, -45)" d="M 89.998 2.083 C 90.00500000000001 1.9160000000000001 89.99600000000001 1.7500000000000002 89.962 1.5860000000000003 C 89.95700000000001 1.5640000000000003 89.949 1.5440000000000003 89.943 1.5230000000000004 C 89.908 1.3800000000000003 89.856 1.2410000000000003 89.789 1.1070000000000004 C 89.77 1.0690000000000004 89.751 1.0320000000000005 89.73 0.9950000000000004 C 89.64500000000001 0.8480000000000004 89.546 0.7060000000000004 89.42 0.5800000000000005 C 89.295 0.4550000000000005 89.154 0.35700000000000054 89.008 0.2720000000000005 C 88.96799999999999 0.24900000000000053 88.929 0.22900000000000054 88.887 0.20900000000000052 C 88.757 0.14500000000000052 88.623 0.09400000000000051 88.485 0.060000000000000525 C 88.459 0.05400000000000053 88.43599999999999 0.043000000000000524 88.41 0.038000000000000526 C 88.24799999999999 0.005000000000000525 88.084 -0.003999999999999476 87.919 0.003000000000000523 C 87.87599999999999 0.005000000000000523 87.835 0.011000000000000523 87.792 0.015000000000000523 C 87.645 0.031000000000000524 87.5 0.061000000000000526 87.359 0.11000000000000053 C 87.33999999999999 0.11600000000000053 87.321 0.11500000000000053 87.30199999999999 0.12200000000000052 L 1.298 32.396 C 0.548 32.677 0.039000000000000146 33.378 0.0030000000000001137 34.178 C -0.032999999999999884 34.977999999999994 0.4110000000000001 35.721999999999994 1.1320000000000001 36.07 L 36.744 53.256 L 53.93 88.869 C 54.264 89.562 54.967 90 55.731 90 C 55.761 90 55.792 89.999 55.822 89.998 C 56.622 89.962 57.322 89.452 57.603 88.703 L 89.859 2.748 C 89.859 2.7470000000000003 89.86 2.7460000000000004 89.86 2.744 L 89.878 2.696 C 89.884 2.68 89.883 2.664 89.889 2.648 C 89.939 2.503 89.97 2.354 89.98599999999999 2.2030000000000003 C 89.99 2.163 89.996 2.124 89.998 2.083 z M 80.059 7.113 L 37.831 49.34 L 7.08 34.499 L 80.059 7.113 z M 55.501 82.92 L 40.66 52.168 L 82.888 9.94 L 55.501 82.92 z" stroke-linecap="round" />
</g>
</svg>