<svg xmlns="http://www.w3.org/2000/svg" version="1.1" xmlns:xlink="http://www.w3.org/1999/xlink" xmlns:svgjs="http://svgjs.dev/svgjs" width="3840" height="2160" preserveAspectRatio="none" viewBox="0 0 3840 2160"><g mask="url(&quot;#SvgjsMask1153&quot;)" fill="none"><rect width="3840" height="2160" x="0" y="0" fill="rgba(67, 67, 67, 1)"></rect><path d="M0,1004.529C189.822,986.654,368.295,925.591,531.601,827.188C698.744,726.473,839.356,594.966,948.341,433.093C1073.469,247.243,1236.597,48.556,1205.192,-173.28C1173.783,-395.145,961.065,-539.774,790.108,-684.633C640.263,-811.603,462.858,-882.684,280.857,-956.512C78.153,-1038.738,-132.717,-1224.199,-335.041,-1141.043C-541.411,-1056.224,-558.318,-769.912,-658.373,-570.483C-732.613,-422.509,-800.075,-280.625,-846.452,-121.701C-900.414,63.215,-995.466,247.032,-951.68,434.618C-904.463,636.899,-778.296,827.035,-600.088,933.755C-423.716,1039.375,-204.674,1023.802,0,1004.529" fill="#363636"></path><path d="M3840 3582.419C4100.723 3553.962 4310.433 3374.716 4515.874 3211.681 4703.644 3062.67 4897.622 2905.511 4977.6900000000005 2679.566 5054.877 2461.753 4970.258 2230.83 4944.853 2001.146 4918.467000000001 1762.598 4946.509 1513.254 4825.745 1305.847 4692.644 1077.252 4489.829 883.8219999999999 4241.392 792.9860000000001 3985.463 699.4110000000001 3689.012 687.6099999999999 3440.478 799.3530000000001 3202.576 906.316 3091.846 1167.8319999999999 2938.446 1378.799 2798.7960000000003 1570.855 2663.81 1756.078 2582.568 1979.209 2484.014 2249.889 2323.591 2537.31 2417.477 2809.6440000000002 2512.218 3084.46 2806.726 3231.587 3062.157 3370.348 3303.188 3501.286 3567.319 3612.181 3840 3582.419" fill="#505050"></path></g><defs><mask id="SvgjsMask1153"><rect width="3840" height="2160" fill="#ffffff"></rect></mask></defs></svg>