<svg xmlns="http://www.w3.org/2000/svg" version="1.1" xmlns:xlink="http://www.w3.org/1999/xlink" xmlns:svgjs="http://svgjs.dev/svgjs" width="1980" height="1080" preserveAspectRatio="none" viewBox="0 0 1980 1080"><g mask="url(&quot;#SvgjsMask1812&quot;)" fill="none"><rect width="1980" height="1080" x="0" y="0" fill="url(&quot;#SvgjsLinearGradient1813&quot;)"></rect><path d="M0 0L484.31 0L0 230.8z" fill="rgba(255, 255, 255, .1)"></path><path d="M0 230.8L484.31 0L667.1800000000001 0L0 328.65z" fill="rgba(255, 255, 255, .075)"></path><path d="M0 328.65L667.1800000000001 0L889.6400000000001 0L0 349.90999999999997z" fill="rgba(255, 255, 255, .05)"></path><path d="M0 349.90999999999997L889.6400000000001 0L1559.98 0L0 458.39z" fill="rgba(255, 255, 255, .025)"></path><path d="M1980 1080L1618.73 1080L1980 689.87z" fill="rgba(0, 0, 0, .1)"></path><path d="M1980 689.87L1618.73 1080L1358.14 1080L1980 384.16z" fill="rgba(0, 0, 0, .075)"></path><path d="M1980 384.1600000000001L1358.14 1080L591.45 1080L1980 237.2400000000001z" fill="rgba(0, 0, 0, .05)"></path><path d="M1980 237.24000000000012L591.45 1080L262.52000000000004 1080L1980 185.30000000000013z" fill="rgba(0, 0, 0, .025)"></path></g><defs><mask id="SvgjsMask1812"><rect width="1980" height="1080" fill="#ffffff"></rect></mask><linearGradient x1="88.64%" y1="120.83%" x2="11.36%" y2="-20.83%" gradientUnits="userSpaceOnUse" id="SvgjsLinearGradient1813"><stop stop-color="rgba(31, 31, 31, 1)" offset="0.14"></stop><stop stop-color="rgba(36, 36, 36, 1)" offset="0.72"></stop></linearGradient></defs></svg>